PathFileType	4	(X/Y/Z)	C:/Users/beibeiliu/ov580/test_trc/User2\sequence.12_training_dense_right.trc
DataRate	CameraRate	NumFrames	NumMarkers	Units	OrigDataRate	OrigDataStartFrame	OrigNumFrames
120	120	10	19	mm	120	25	98
Frame#	Time	ThumbCMC			ThumbMCP			ThumbIP			ThumbTip			IndexMCP			IndexPIP			IndexTip			MiddleMCP			MiddlePIP			MiddleTip			RingMCP			RingPIP			RingTip			PinkyMCP			PinkyPIP			PinkyTip			BackHand1			BackHand2			BackHand3	
		X0	Y0	Z0	X1	Y1	Z1	X2	Y2	Z2	X3	Y3	Z3	X4	Y4	Z4	X5	Y5	Z5	X6	Y6	Z6	X7	Y7	Z7	X8	Y8	Z8	X9	Y9	Z9	X10	Y10	Z10	X11	Y11	Z11	X12	Y12	Z12	X13	Y13	Z13	X14	Y14	Z14	X15	Y15	Z15	X16	Y16	Z16	X17	Y17	Z17	X18	Y18	Z18	
24	0.2	91.7975	-17.8159	-24.4288	71.501	-35.2093	-39.1038	43.3846	-49.2752	-52.951	27.2632	-62.6599	-74.3144	102.639	9.09801	-102.209	93.784	10.9652	-129.259	88.58	3.32023	-158.038	138.532	10.1739	-105.626	136.416	12.0355	-142.264	136.457	-0.452103	-176.998	160.676	0.502579	-106.324	167.81	-3.45607	-133.599	166.503	-13.5634	-160.51	183.377	-23.357	-89.1547	193.296	-34.6684	-116.751	199.694	-47.3423	-134.088	158.177	2.47009	-49.839	161.111	3.02644	-12.6096	122.683	7.01187	-30.4667	
25	0.208333	90.5707	-17.2111	-24.8527	71.3444	-34.0594	-38.9888	50.0021	-47.325	-55.2635	36.4073	-60.5009	-76.6278	105.24	10.8913	-98.2527	97.2537	13.0875	-128.116	92.5162	6.33065	-157.457	139.795	15.7338	-108.468	141.431	16.2749	-140.059	138.317	3.63996	-177.296	166.037	2.05611	-103.721	170.315	0.609338	-134.753	168.096	-8.35237	-159.057	188.502	-20.3092	-88.6712	198.076	-30.4758	-111.286	203.653	-43.2594	-135.75	163.24	2.21363	-45.1866	163.522	4.78935	-14.2559	127.757	9.67238	-30.4811	
26	0.216667	97.783	-15.7393	-25.4799	77.8799	-31.1205	-41.2076	52.1225	-44.0924	-58.9955	38.06	-56.3019	-79.7977	108.235	15.5599	-96.7593	102.804	19.5077	-126.01	92.1053	12.3459	-155.828	140.921	21.0734	-103.235	143.931	22.5621	-141.679	145.548	12.904	-172.133	166.5	10.4827	-104.541	171.132	8.53146	-133.538	175.382	-1.33464	-162.174	193.377	-14.1653	-88.8329	199.078	-21.3492	-115.17	205.498	-32.5067	-136.65	163.234	5.71427	-47.0694	167.172	5.69614	-14.1757	130.409	13.5264	-28.1648	
27	0.225	97.9221	-11.5728	-22.7366	78.2072	-27.1059	-41.2621	54.3394	-38.4699	-67.9717	41.63	-50.4676	-83.4736	113.528	24.8979	-98.383	104.173	28.7001	-124.84	96.3111	22.0305	-156.09	144.568	30.0928	-102.789	148.279	34.338	-138.297	145.226	24.2334	-173.338	173.018	17.4151	-97.5159	175.284	19.3453	-129.442	181.418	9.67874	-159.837	195.448	-4.80175	-86.4948	208.336	-12.3994	-109.685	210.093	-20.3632	-139.111	167.402	12.2505	-46.6073	165.695	11.4776	-9.19821	132.52	17.8191	-31.2767	
28	0.233333	100.817	-9.73869	-27.7944	79.8433	-23.774	-48.2136	60.2055	-35.5096	-68.7313	45.4553	-46.5186	-88.4826	113.223	30.6201	-99.3932	105.966	33.9518	-125.509	100.703	24.325	-159.069	147.618	35.5756	-103.286	148.676	39.7965	-136.22	150.489	28.8978	-172.077	175.426	23.155	-100.542	182.339	24.6789	-128.255	183.341	15.3357	-157.428	197.685	-1.04026	-87.2113	209.608	-6.97125	-112.986	216.553	-16.8955	-135.223	167.856	15.239	-43.9255	169.124	11.7983	-9.67743	131.797	19.907	-32.3246	
29	0.241667	104.957	-13.2887	-27.523	84.1603	-28.9728	-46.7607	58.6675	-40.2202	-70.5157	48.8994	-50.3845	-92.7673	120.763	22.1564	-105.32	112.505	24.33	-130.183	108.07	13.6637	-159.103	153.743	27.0081	-107.783	155.549	26.8895	-142.717	151.629	12.189	-176	179.874	12.1372	-100.439	184.939	12.2514	-132.79	183.61	-1.10618	-161.787	199.183	-10.7586	-87.0846	212.309	-20.1226	-115.122	216.592	-33.0284	-135.847	172.295	8.36569	-47.5784	173.497	7.45134	-12.1544	134.445	13.641	-31.2582	
30	0.25	103.683	-12.3995	-29.8704	80.7667	-26.6198	-46.0035	57.5825	-38.3849	-64.6269	44.6445	-49.8546	-82.7622	119.818	7.6312	-106.655	115.89	4.37812	-137.09	108.296	-7.60279	-161.447	155.491	5.19764	-113.295	155.402	-0.0287289	-149.515	151.139	-20.7433	-177.074	180.317	-10.0778	-107.195	181.29	-16.4787	-136.905	178.518	-39.9294	-163.038	194.613	-33.9417	-90.8545	200.532	-48.678	-117.103	200.09	-66.1684	-135.173	175.383	-6.7606	-50.467	174.854	-2.77981	-19.0981	140.635	8.61437	-35.7457	
31	0.258333	107.306	0.427012	-28.5598	77.0744	-9.08129	-43.9105	50.8213	-15.8313	-58.4778	31.821	-27.252	-76.1393	124.687	-0.243635	-109.353	111.146	-5.10344	-139.657	99.6949	-22.2109	-161.659	153.437	-12.4237	-119.005	147.905	-24.8015	-150.897	130.027	-46.9916	-175.6	169.894	-34.0774	-111.458	167.475	-48.6443	-138.052	151.882	-66.105	-156.741	180.964	-60.6391	-88.7753	177.613	-79.2564	-111.28	166.335	-98.064	-128.891	172.292	-19.3106	-55.4872	177.533	-8.50217	-22.3292	149.853	5.30212	-41.748	
32	0.266667	115.318	18.6265	-26.7079	81.3642	17.2286	-40.5871	51.1886	18.191	-54.7696	30.9992	7.73563	-69.3488	122.895	-0.501429	-109.513	102.539	-4.32179	-138.978	84.9893	-18.2625	-153.367	142.653	-23.8189	-115.567	127.317	-36.0329	-148.62	105.181	-58.7188	-165.396	152.077	-50.0111	-107.349	141.076	-64.5004	-132.208	117.307	-83.7421	-147.182	154.938	-73.6716	-82.9828	144.861	-98.2576	-98.8926	122.588	-113.206	-114.529	169.105	-30.8765	-55.6419	178.658	-23.2858	-26.8787	155.336	2.61083	-48.4981	
33	0.275	127.98	28.3405	-29.0978	97.7789	39.3106	-36.0761	67.1729	47.7067	-49.5828	41.9718	46.3201	-65.588	119.05	5.8673	-111.987	101.01	2.32423	-134.656	75.6354	-8.7513	-147.71	130.742	-29.6068	-111.656	110.066	-37.6145	-142.272	80.1897	-48.13	-155.033	129.668	-56.4963	-104.052	113.011	-68.6966	-123.351	85.9042	-78.4471	-133.049	126.92	-77.04	-76.078	108.284	-95.3879	-86.9575	82.215	-108.362	-97.7416	159.582	-35.1266	-55.645	172.858	-27.898	-29.927	158.231	4.69091	-47.0297	
